<?xml version="1.0" encoding="UTF-8" standalone="no"?>
<!DOCTYPE svg PUBLIC "-//W3C//DTD SVG 1.1//EN" "http://www.w3.org/Graphics/SVG/1.1/DTD/svg11.dtd">
<svg width="100%" height="100%" viewBox="0 0 175 110" version="1.1" xmlns="http://www.w3.org/2000/svg" xmlns:xlink="http://www.w3.org/1999/xlink" xml:space="preserve" xmlns:serif="http://www.serif.com/" style="fill-rule:evenodd;clip-rule:evenodd;stroke-linejoin:round;stroke-miterlimit:2;">
    <g transform="matrix(0.924822,0,0,0.924822,8.38611,4.12946)">
        <path d="M53.97,109.25C47.93,107.67 43.07,103.91 39.57,98.12C38.51,96.38 37.65,94.76 37.65,94.54C37.65,94 80.69,93.95 81.02,94.49C81.36,95.04 79.94,97.99 78.06,100.62C72.79,108.01 62.84,111.58 53.97,109.25ZM119.06,109.61C116.13,109.16 114.72,108.68 111.78,107.16C107.07,104.71 104.8,102.14 99.87,93.67L97.78,90.07L66.38,89.98L34.98,89.88L32.01,84.71C30.38,81.87 28.43,78.47 27.69,77.15C26.94,75.83 23.46,69.77 19.96,63.67C3.82,35.66 1.83,32.1 1.61,31.04L1.38,29.9L22.84,29.9C42.28,29.9 44.3,29.95 44.3,30.49C44.3,31.77 41.51,36.28 39.05,38.98C35.79,42.56 34.42,45.36 34.1,49.11C33.45,56.83 38.52,63.69 46.07,65.29C48.78,65.86 50.22,65.81 54.23,64.96C58.61,64.04 61.51,64.03 65.12,64.96C69.34,66.04 72.11,67.65 75.53,71.04C78.76,74.24 80.75,77.55 81.75,81.4C82.04,82.52 82.38,83.6 82.5,83.8C82.65,84.03 93.78,84.16 113.94,84.16L145.16,84.16L144.98,88.31C144.84,91.62 144.61,92.98 143.83,95C139.88,105.27 129.73,111.26 119.06,109.61ZM91.03,78.72C90.55,77.96 87.45,72.6 84.15,66.81C80.85,61.03 75.24,51.23 71.68,45.03C64.68,32.84 64.07,31.63 63.16,28.26L62.56,26.02L31.28,25.93L0,25.83L0.01,22.98C0.02,15.19 3.78,8.24 10.28,4C16.37,0.02 23.78,-0.9 30.53,1.47C37.31,3.86 42.82,9.81 44.89,16.98L45.69,19.75L125.6,19.75L126.11,17.72C128.17,9.46 134.76,2.86 143.08,0.73C153.08,-1.83 164.04,3.08 168.66,12.18C170.5,15.8 171.04,17.98 171.07,21.96L171.09,25.65L139.9,25.84C122.74,25.94 108.5,26.16 108.25,26.32C107.99,26.49 107.78,26.98 107.78,27.43C107.75,30.18 104.8,35.66 101.31,39.47C98.71,42.29 97.53,44.47 96.86,47.66C96.41,49.84 96.38,50.84 96.7,52.78C97.14,55.36 98.75,59 100.17,60.6C104.1,64.99 110.09,66.64 116.53,65.1C124.42,63.22 132.54,65.39 138.08,70.87C140.66,73.43 143.07,77.06 143.45,78.95L143.68,80.1L91.92,80.1L91.03,78.72ZM143.78,45.42C139.15,44.42 134.92,41.95 131.55,38.28C129.55,36.09 126.98,31.82 126.98,30.68C126.98,30.38 132.8,30.27 148.57,30.27C165.61,30.27 170.17,30.37 170.16,30.73C170.15,31.63 167.24,36.44 165.58,38.28C163.29,40.83 159.45,43.38 156.13,44.55C153.92,45.33 152.57,45.54 149.31,45.63C147.08,45.69 144.59,45.59 143.78,45.42ZM64.07,15.04C64.88,12.4 67.71,8.33 70.4,5.93C74.83,1.96 81.6,-0.33 87.3,0.21C93.26,0.77 98.17,3.23 102.35,7.75C104.68,10.26 107.31,14.78 106.86,15.5C106.71,15.74 99.15,15.87 85.22,15.87L63.81,15.87L64.07,15.04Z" style="fill:url(#_Linear1);"/>
    </g>
    <defs>
        <linearGradient id="_Linear1" x1="0" y1="0" x2="1" y2="0" gradientUnits="userSpaceOnUse" gradientTransform="matrix(171.09,109.903,-109.903,171.09,0,0.0544977)"><stop offset="0" style="stop-color:rgb(244,179,36);stop-opacity:1"/><stop offset="0.55" style="stop-color:rgb(217,142,0);stop-opacity:1"/><stop offset="1" style="stop-color:rgb(168,101,10);stop-opacity:1"/></linearGradient>
    </defs>
</svg>
