<svg viewBox="0 0 466 110" xmlns="http://www.w3.org/2000/svg"><defs><linearGradient id="ag" x1="0" y1="0" x2="1" y2="1"><stop offset="0" stop-color="#F4B324"/><stop offset=".55" stop-color="#D98E00"/><stop offset="1" stop-color="#A8650A"/></linearGradient></defs><path fill-rule="evenodd" d="M 53.97 109.25 C 47.93 107.67 43.07 103.91 39.57 98.12 C 38.51 96.38 37.65 94.76 37.65 94.54 C 37.65 94.00 80.69 93.95 81.02 94.49 C 81.36 95.04 79.94 97.99 78.06 100.62 C 72.79 108.01 62.84 111.58 53.97 109.25 Z M 119.06 109.61 C 116.13 109.16 114.72 108.68 111.78 107.16 C 107.07 104.71 104.80 102.14 99.87 93.67 L 97.78 90.07 L 66.38 89.98 L 34.98 89.88 L 32.01 84.71 C 30.38 81.87 28.43 78.47 27.69 77.15 C 26.94 75.83 23.46 69.77 19.96 63.67 C 3.82 35.66 1.83 32.10 1.61 31.04 L 1.38 29.90 L 22.84 29.90 C 42.28 29.90 44.30 29.95 44.30 30.49 C 44.30 31.77 41.51 36.28 39.05 38.98 C 35.79 42.56 34.42 45.36 34.10 49.11 C 33.45 56.83 38.52 63.69 46.07 65.29 C 48.78 65.86 50.22 65.81 54.23 64.96 C 58.61 64.04 61.51 64.03 65.12 64.96 C 69.34 66.04 72.11 67.65 75.53 71.04 C 78.76 74.24 80.75 77.55 81.75 81.40 C 82.04 82.52 82.38 83.60 82.50 83.80 C 82.65 84.03 93.78 84.16 113.94 84.16 L 145.16 84.16 L 144.98 88.31 C 144.84 91.62 144.61 92.98 143.83 95.00 C 139.88 105.27 129.73 111.26 119.06 109.61 Z M 91.03 78.72 C 90.55 77.96 87.45 72.60 84.15 66.81 C 80.85 61.03 75.24 51.23 71.68 45.03 C 64.68 32.84 64.07 31.63 63.16 28.26 L 62.56 26.02 L 31.28 25.93 L 0.00 25.83 L 0.01 22.98 C 0.02 15.19 3.78 8.24 10.28 4.00 C 16.37 0.02 23.78 -0.90 30.53 1.47 C 37.31 3.86 42.82 9.81 44.89 16.98 L 45.69 19.75 L 85.65 19.75 L 125.60 19.75 L 126.11 17.72 C 128.17 9.46 134.76 2.86 143.08 0.73 C 153.08 -1.83 164.04 3.08 168.66 12.18 C 170.50 15.80 171.04 17.98 171.07 21.96 L 171.09 25.65 L 139.90 25.84 C 122.74 25.94 108.50 26.16 108.25 26.32 C 107.99 26.49 107.78 26.98 107.78 27.43 C 107.75 30.18 104.80 35.66 101.31 39.47 C 98.71 42.29 97.53 44.47 96.86 47.66 C 96.41 49.84 96.38 50.84 96.70 52.78 C 97.14 55.36 98.75 59.00 100.17 60.60 C 104.10 64.99 110.09 66.64 116.53 65.10 C 124.42 63.22 132.54 65.39 138.08 70.87 C 140.66 73.43 143.07 77.06 143.45 78.95 L 143.68 80.10 L 117.80 80.10 L 91.92 80.10 L 91.03 78.72 Z M 143.78 45.42 C 139.15 44.42 134.92 41.95 131.55 38.28 C 129.55 36.09 126.98 31.82 126.98 30.68 C 126.98 30.38 132.80 30.27 148.57 30.27 C 165.61 30.27 170.17 30.37 170.16 30.73 C 170.15 31.63 167.24 36.44 165.58 38.28 C 163.29 40.83 159.45 43.38 156.13 44.55 C 153.92 45.33 152.57 45.54 149.31 45.63 C 147.08 45.69 144.59 45.59 143.78 45.42 Z M 64.07 15.04 C 64.88 12.40 67.71 8.33 70.40 5.93 C 74.83 1.96 81.60 -0.33 87.30 0.21 C 93.26 0.77 98.17 3.23 102.35 7.75 C 104.68 10.26 107.31 14.78 106.86 15.50 C 106.71 15.74 99.15 15.87 85.22 15.87 L 63.81 15.87 L 64.07 15.04 Z" fill="url(#ag)"/><g transform="translate(201.3,80.2)" fill="#1A1206"><g transform="translate(0.00,0) scale(0.07000,-0.07000)"><path d="M129.17449951171875 0 31.7498779296875 700H151.20068359375L226.900146484375 82.5506591796875H243.8502197265625L341.82452392578125 700H550.5758666992188L648.5501708984375 82.5506591796875H665.500244140625L741.19970703125 700H860.6505126953125L763.2258911132812 0H554.299560546875L454.67523193359375 628.99951171875H437.72515869140625L338.100830078125 0Z"/></g><g transform="translate(62.94,0) scale(0.07000,-0.07000)"><path d="M73.1497802734375 0V494.2501220703125H187.6005859375V0ZM130.37518310546875 556.7998046875Q98.47503662109375 556.7998046875 76.46243286132812 577.5748901367188Q54.4498291015625 598.3499755859375 54.4498291015625 631.900146484375Q54.4498291015625 665.6253051757812 76.46243286132812 686.3128967285156Q98.47503662109375 707.00048828125 130.37518310546875 707.00048828125Q163.27532958984375 707.00048828125 184.78793334960938 686.3128967285156Q206.300537109375 665.6253051757812 206.300537109375 631.900146484375Q206.300537109375 598.3499755859375 184.78793334960938 577.5748901367188Q163.27532958984375 556.7998046875 130.37518310546875 556.7998046875Z"/></g><g transform="translate(81.71,0) scale(0.07000,-0.07000)"><path d="M73.1497802734375 0V494.2501220703125H185.6005859375V437.37518310546875H202.5506591796875Q214.07562255859375 467.900146484375 239.92559814453125 482.07513427734375Q265.77557373046875 496.2501220703125 302.400390625 496.2501220703125H361.87542724609375V394.0494384765625H299.52545166015625Q250.300537109375 394.0494384765625 218.9505615234375 367.5870056152344Q187.6005859375 341.12457275390625 187.6005859375 285.8497314453125V0Z"/></g><g transform="translate(109.58,0) scale(0.07000,-0.07000)"><path d="M298.7998046875 -14Q224.62481689453125 -14 168.2998046875 17.5Q111.97479248046875 49 80.56228637695312 106.41250610351562Q49.1497802734375 163.82501220703125 49.1497802734375 241.12506103515625V253.12506103515625Q49.1497802734375 330.60009765625 80.1497802734375 387.92510986328125Q111.1497802734375 445.2501220703125 166.88729858398438 476.7501220703125Q222.62481689453125 508.2501220703125 295.92486572265625 508.2501220703125Q368.0499267578125 508.2501220703125 421.7874450683594 476.4500732421875Q475.52496337890625 444.6500244140625 505.52496337890625 387.8499755859375Q535.5249633789062 331.0499267578125 535.5249633789062 255.39990234375V214.32476806640625H165.2506103515625Q167.42559814453125 156.32525634765625 206.31289672851562 121.26296997070312Q245.2001953125 86.20068359375 302.099853515625 86.20068359375Q357.72467041015625 86.20068359375 384.9120178222656 110.6005859375Q412.099365234375 135.00048828125 426.32427978515625 165.97528076171875L520.7498779296875 117.22491455078125Q506.57489013671875 90 480.07489013671875 59.32501220703125Q453.57489013671875 28.6500244140625 409.92486572265625 7.32501220703125Q366.27484130859375 -14 298.7998046875 -14ZM166.2506103515625 300.97528076171875H419.2491455078125Q415.2491455078125 350.27484130859375 381.8618469238281 379.1621398925781Q348.47454833984375 408.0494384765625 295.099853515625 408.0494384765625Q240.2501220703125 408.0494384765625 207.100341796875 379.1621398925781Q173.9505615234375 350.27484130859375 166.2506103515625 300.97528076171875Z"/></g></g><g transform="translate(364.0,80.2)" fill="url(#ag)"><g transform="translate(0.00,0) scale(0.07000,-0.07000)"><path d="M69.499755859375 0V700H189.6005859375V405.57537841796875H466.3994140625V700H586.500244140625V0H466.3994140625V296.42462158203125H189.6005859375V0Z"/></g><g transform="translate(46.42,0) scale(0.07000,-0.07000)"><path d="M337.12506103515625 -14Q206.699951171875 -14 129.57489013671875 58.5Q52.4498291015625 131 52.4498291015625 266.87493896484375V433.12506103515625Q52.4498291015625 569 129.57489013671875 641.5Q206.699951171875 714 337.12506103515625 714Q467.5501708984375 714 544.6752319335938 641.5Q621.80029296875 569 621.80029296875 433.12506103515625V266.87493896484375Q621.80029296875 131 544.6752319335938 58.5Q467.5501708984375 -14 337.12506103515625 -14ZM337.12506103515625 93.500732421875Q415.32476806640625 93.500732421875 458.5121154785156 139.300537109375Q501.699462890625 185.100341796875 501.699462890625 263.22491455078125V436.77508544921875Q501.699462890625 514.899658203125 458.5121154785156 560.699462890625Q415.32476806640625 606.499267578125 337.12506103515625 606.499267578125Q259.92535400390625 606.499267578125 216.23800659179688 560.699462890625Q172.5506591796875 514.899658203125 172.5506591796875 436.77508544921875V263.22491455078125Q172.5506591796875 185.100341796875 216.23800659179688 139.300537109375Q259.92535400390625 93.500732421875 337.12506103515625 93.500732421875ZM381.72515869140625 -175.4503173828125Q335.699951171875 -175.4503173828125 307.2123107910156 -146.96267700195312Q278.72467041015625 -118.47503662109375 278.72467041015625 -70.4498291015625V0H395.3504638671875V-51.67474365234375Q395.3504638671875 -81.67474365234375 423.3504638671875 -81.67474365234375H484.100341796875V-175.4503173828125Z"/></g></g></svg>